<svg xmlns="http://www.w3.org/2000/svg" viewBox="0 0 320 180" fill="none" role="img" aria-label="Three-up pricing tier schematic">
  <rect width="320" height="180" fill="#0a0a0a"/>
  <rect x="80" y="18" width="160" height="8" rx="1" fill="#c97f2c"/>
  <g stroke="#3a3a3a" stroke-width="0.6">
    <rect x="20" y="38" width="86" height="130" rx="4" fill="none"/>
    <rect x="117" y="38" width="86" height="130" rx="4" fill="none"/>
    <rect x="214" y="38" width="86" height="130" rx="4" fill="none"/>
  </g>
  <g fill="#cdc4b6" opacity="0.55">
    <rect x="34" y="52" width="58" height="6" rx="1"/>
    <rect x="131" y="52" width="58" height="6" rx="1"/>
    <rect x="228" y="52" width="58" height="6" rx="1"/>
  </g>
  <g fill="#c97f2c">
    <rect x="34" y="76" width="40" height="14" rx="1"/>
    <rect x="131" y="76" width="40" height="14" rx="1" opacity="0.7"/>
    <rect x="228" y="76" width="40" height="14" rx="1" opacity="0.55"/>
  </g>
  <g fill="#cdc4b6" opacity="0.3">
    <rect x="34" y="104" width="58" height="3" rx="1"/>
    <rect x="34" y="112" width="50" height="3" rx="1"/>
    <rect x="34" y="120" width="58" height="3" rx="1"/>
    <rect x="131" y="104" width="58" height="3" rx="1"/>
    <rect x="131" y="112" width="50" height="3" rx="1"/>
    <rect x="131" y="120" width="58" height="3" rx="1"/>
    <rect x="228" y="104" width="58" height="3" rx="1"/>
    <rect x="228" y="112" width="50" height="3" rx="1"/>
    <rect x="228" y="120" width="58" height="3" rx="1"/>
  </g>
  <g fill="#c97f2c">
    <rect x="34" y="146" width="58" height="10" rx="2"/>
    <rect x="131" y="146" width="58" height="10" rx="2"/>
    <rect x="228" y="146" width="58" height="10" rx="2"/>
  </g>
</svg>
