<svg xmlns="http://www.w3.org/2000/svg" viewBox="0 0 320 180" fill="none" role="img" aria-label="Project narrative plus testimonial schematic">
  <rect width="320" height="180" fill="#0a0a0a"/>
  <!-- Narrative -->
  <rect x="20" y="18" width="280" height="78" rx="3" fill="none" stroke="#3a3a3a" stroke-width="0.6"/>
  <rect x="34" y="30" width="160" height="7" rx="1" fill="#c97f2c"/>
  <g fill="#cdc4b6" opacity="0.55">
    <rect x="34" y="48" width="252" height="3" rx="1"/>
    <rect x="34" y="56" width="230" height="3" rx="1"/>
    <rect x="34" y="64" width="244" height="3" rx="1"/>
    <rect x="34" y="76" width="240" height="3" rx="1"/>
    <rect x="34" y="84" width="180" height="3" rx="1"/>
  </g>
  <!-- Testimonial -->
  <rect x="20" y="104" width="280" height="58" rx="3" fill="none" stroke="#3a3a3a" stroke-width="0.6"/>
  <text x="36" y="130" font-family="serif" font-size="32" fill="#c97f2c" opacity="0.75">“</text>
  <g fill="#cdc4b6" opacity="0.55">
    <rect x="60" y="122" width="220" height="3" rx="1"/>
    <rect x="60" y="130" width="190" height="3" rx="1"/>
    <rect x="60" y="138" width="200" height="3" rx="1"/>
    <rect x="60" y="148" width="100" height="3" rx="1"/>
  </g>
</svg>
