<svg xmlns="http://www.w3.org/2000/svg" viewBox="0 0 320 180" fill="none" role="img" aria-label="Three testimonial cards in a row schematic">
  <rect width="320" height="180" fill="#0a0a0a"/>
  <rect x="90" y="18" width="140" height="8" rx="1" fill="#c97f2c"/>
  <g stroke="#3a3a3a" stroke-width="0.6">
    <rect x="20" y="40" width="86" height="120" rx="3" fill="none"/>
    <rect x="117" y="40" width="86" height="120" rx="3" fill="none"/>
    <rect x="214" y="40" width="86" height="120" rx="3" fill="none"/>
  </g>
  <g font-family="serif" font-size="26" fill="#c97f2c" opacity="0.75">
    <text x="34" y="76">“</text>
    <text x="131" y="76">“</text>
    <text x="228" y="76">“</text>
  </g>
  <g fill="#cdc4b6" opacity="0.55">
    <rect x="34" y="84" width="58" height="3" rx="1"/>
    <rect x="34" y="92" width="48" height="3" rx="1"/>
    <rect x="34" y="100" width="58" height="3" rx="1"/>
    <rect x="34" y="108" width="40" height="3" rx="1"/>
    <rect x="131" y="84" width="58" height="3" rx="1"/>
    <rect x="131" y="92" width="48" height="3" rx="1"/>
    <rect x="131" y="100" width="58" height="3" rx="1"/>
    <rect x="131" y="108" width="40" height="3" rx="1"/>
    <rect x="228" y="84" width="58" height="3" rx="1"/>
    <rect x="228" y="92" width="48" height="3" rx="1"/>
    <rect x="228" y="100" width="58" height="3" rx="1"/>
    <rect x="228" y="108" width="40" height="3" rx="1"/>
  </g>
</svg>
